<svg width="323" height="444" viewBox="0 0 323 444" fill="none" xmlns="http://www.w3.org/2000/svg">
<g clip-path="url(#clip0_7_3)">
<rect x="15" y="139" width="307.587" height="291.577" rx="145.789" fill="#C8A587"/>
<g opacity="0.5">
<path d="M315.936 336.435C316.553 332.241 310.294 328.802 305.596 328.438C303.352 328.275 301.022 328.593 298.856 327.893C294.254 326.382 292.415 320.76 287.928 318.968C284.568 317.63 280.707 318.822 277.452 320.369C274.198 321.915 270.982 323.871 267.343 324.09C264.185 324.281 260.747 323.18 257.984 324.636C255.924 325.718 254.836 327.965 252.939 329.285C251.042 330.604 248.654 330.858 246.343 330.977C244.033 331.095 241.655 331.113 239.556 332.023C237.457 332.933 235.704 335.034 236.147 337.181L315.936 336.435Z" fill="white"/>
<path d="M92.1794 288.074C92.7564 284.134 86.8963 280.904 82.4967 280.562C80.3961 280.408 78.2143 280.707 76.1858 280.049C71.8764 278.63 70.1545 273.349 65.9532 271.665C62.8068 270.409 59.1916 271.529 56.1443 272.981C53.0971 274.434 50.0859 276.272 46.678 276.477C43.7209 276.656 40.5024 275.622 37.9149 276.99C35.9856 278.007 34.9668 280.118 33.1908 281.357C31.4147 282.596 29.1788 282.835 27.0151 282.946C24.8514 283.057 22.6245 283.075 20.6591 283.929C18.6938 284.784 17.053 286.758 17.4677 288.775L92.1794 288.074Z" fill="white"/>
<path d="M303.932 186.272C304.395 183.094 299.69 180.489 296.157 180.213C294.47 180.089 292.718 180.331 291.089 179.8C287.629 178.656 286.246 174.397 282.873 173.039C280.346 172.026 277.443 172.928 274.996 174.1C272.55 175.272 270.132 176.754 267.395 176.919C265.021 177.064 262.436 176.23 260.359 177.333C258.809 178.153 257.991 179.855 256.565 180.854C255.139 181.854 253.344 182.047 251.606 182.136C249.869 182.226 248.081 182.24 246.503 182.929C244.924 183.618 243.607 185.21 243.94 186.837L303.932 186.272Z" fill="white"/>
<path d="M110.488 199.37C110.952 196.193 106.246 193.587 102.713 193.312C101.027 193.188 99.2748 193.429 97.6459 192.898C94.1855 191.754 92.8029 187.495 89.4294 186.137C86.9028 185.124 83.9999 186.027 81.553 187.198C79.1061 188.37 76.6882 189.852 73.9518 190.017C71.5773 190.162 68.9929 189.328 66.9152 190.431C65.366 191.251 64.5479 192.953 63.1218 193.953C61.6957 194.952 59.9003 195.145 58.1629 195.235C56.4255 195.324 54.6373 195.338 53.0592 196.027C51.481 196.716 50.1635 198.309 50.4965 199.935L110.488 199.37Z" fill="white"/>
<path d="M292.519 249.373C292.959 246.368 288.489 243.904 285.133 243.643C283.53 243.526 282.081 241.42 280.534 240.918C277.247 239.836 275.328 242.981 272.124 241.697C268.43 245.758 265.565 241.697 262.561 242.131C260.236 243.24 260.409 240.37 257.809 240.527C255.553 240.664 253.098 239.875 251.124 240.918C249.653 241.694 248.876 243.304 247.521 244.249C246.166 245.195 244.46 245.377 242.81 245.462C241.159 245.547 239.461 245.56 237.961 246.212C236.462 246.863 235.21 248.369 235.527 249.908L292.519 249.373Z" fill="white"/>
</g>
<rect opacity="0.9" x="-63" y="-17" width="668" height="668" fill="url(#paint0_linear_7_3)"/>
<g opacity="0.2">
<path d="M146.338 244.287C174.122 235.04 188.738 206.194 178.984 179.855C169.23 153.517 138.799 139.662 111.015 148.908C83.2308 158.154 68.6144 187.001 78.3685 213.339C88.1225 239.678 118.553 253.533 146.338 244.287Z" fill="#FFF2E7"/>
<path d="M113.926 198.742C112.415 199.531 110.691 199.878 108.973 199.738C107.254 199.599 105.617 198.98 104.27 197.959C102.922 196.938 101.925 195.561 101.403 194.002C100.881 192.443 100.858 190.773 101.338 189.202C101.817 187.632 102.777 186.231 104.096 185.177C105.416 184.124 107.035 183.465 108.749 183.283C110.464 183.102 112.196 183.407 113.728 184.159C115.26 184.911 116.522 186.077 117.354 187.509C117.91 188.46 118.262 189.505 118.39 190.584C118.518 191.664 118.42 192.757 118.102 193.801C117.783 194.844 117.25 195.818 116.534 196.666C115.817 197.514 114.931 198.219 113.926 198.742V198.742Z" fill="white"/>
<path d="M130.014 176.938C129.136 177.394 128.135 177.594 127.137 177.512C126.139 177.43 125.19 177.069 124.408 176.475C123.626 175.882 123.048 175.082 122.745 174.177C122.443 173.272 122.43 172.302 122.709 171.39C122.987 170.478 123.545 169.665 124.311 169.053C125.077 168.441 126.017 168.058 127.012 167.952C128.007 167.847 129.013 168.023 129.903 168.459C130.793 168.895 131.526 169.571 132.011 170.402C132.334 170.955 132.538 171.563 132.612 172.191C132.686 172.819 132.629 173.455 132.444 174.063C132.258 174.67 131.948 175.236 131.531 175.73C131.114 176.223 130.599 176.633 130.014 176.938V176.938Z" fill="white"/>
<path d="M95.4649 159.723C94.7679 160.348 33.8455 142.33 31.3212 156.491C28.7969 170.652 74.046 201.045 124.664 220.689C175.282 240.332 230.647 253.493 235.206 239.6C239.765 225.707 185.417 196.509 185.417 196.509L184.927 203.652C184.927 203.652 218.534 220.921 216.424 233.028C214.314 245.136 172.927 235.367 127 215.063C81.0726 194.759 43.6225 171.509 47.8799 162.669C52.1373 153.83 89.9641 165.33 89.9641 165.33L95.4649 159.723Z" fill="#FFF2E7"/>
</g>
<g opacity="0.5">
<path d="M105.078 274.222C104.428 274.539 103.693 274.665 102.967 274.586C102.241 274.507 101.556 274.226 100.999 273.778C100.442 273.33 100.037 272.735 99.8361 272.069C99.6353 271.403 99.6473 270.696 99.8707 270.036C100.094 269.376 100.519 268.794 101.091 268.364C101.663 267.933 102.358 267.673 103.086 267.616C103.814 267.559 104.544 267.708 105.183 268.045C105.822 268.381 106.341 268.889 106.675 269.506C106.898 269.914 107.033 270.361 107.074 270.82C107.114 271.278 107.058 271.74 106.91 272.178C106.762 272.617 106.523 273.023 106.209 273.373C105.894 273.724 105.51 274.013 105.078 274.222V274.222Z" fill="white"/>
<path d="M112.173 265.176C111.795 265.36 111.369 265.433 110.947 265.386C110.526 265.34 110.128 265.176 109.805 264.915C109.482 264.655 109.247 264.309 109.131 263.923C109.014 263.536 109.022 263.125 109.151 262.742C109.281 262.359 109.528 262.021 109.86 261.771C110.192 261.521 110.595 261.37 111.018 261.337C111.441 261.303 111.865 261.39 112.236 261.585C112.607 261.78 112.909 262.075 113.103 262.432C113.233 262.67 113.311 262.93 113.335 263.197C113.358 263.464 113.325 263.732 113.239 263.987C113.153 264.242 113.014 264.479 112.831 264.683C112.648 264.887 112.424 265.054 112.173 265.176V265.176Z" fill="white"/>
</g>
</g>
<path d="M234.563 271.669C215.912 267.481 175.533 265.979 175.533 265.979C165.804 266.285 138.729 267.438 120.078 271.684C116.547 272.482 113.475 274.635 111.527 277.675C109.58 280.716 108.915 284.398 109.676 287.923L126.949 368.405C127.798 372.308 129.961 375.804 133.078 378.315C136.196 380.825 140.082 382.199 144.091 382.208H210.681C214.691 382.199 218.576 380.825 221.694 378.315C224.812 375.804 226.975 372.308 227.823 368.405L245.082 287.923C245.84 284.379 245.159 280.681 243.188 277.636C241.217 274.59 238.116 272.445 234.563 271.669Z" fill="#ECD6C4"/>
<path d="M188.102 414.027L187.602 233.939L177.485 232.78L164.869 235.098L166.137 410.268L177.119 412.523L188.102 414.027Z" fill="#2F2325"/>
<path d="M151.677 109.705C161.853 125.485 188.565 166.054 150.635 155.354C112.706 144.654 89.1964 72.4346 64.5494 59.1297C77.3484 54.7505 120.369 61.1468 151.677 109.705Z" fill="#2F2325"/>
<path d="M203.03 106.43C193.067 122.92 166.712 165.586 202.629 155.366C238.546 145.146 262.603 68.8289 286.176 55.3419C274.386 50.09 233.797 55.5241 203.03 106.43Z" fill="#2F2325"/>
<path d="M19.6953 307.668V321.296H108.921V307.668H19.6953Z" fill="#2F2325" stroke="#2F2325" stroke-width="1.79925" stroke-linecap="round" stroke-linejoin="round"/>
<path d="M28.8671 260.628H15.1829V315.153H28.8671V260.628Z" fill="#2F2325" stroke="#2F2325" stroke-width="1.79925" stroke-linecap="round" stroke-linejoin="round"/>
<path d="M34.5664 315.387C34.5664 317.026 34.2419 318.65 33.6114 320.164C32.981 321.679 32.057 323.054 30.8922 324.213C29.7274 325.372 28.3447 326.29 26.8232 326.916C25.3017 327.542 23.6712 327.864 22.0249 327.862C21.6147 327.862 21.2045 327.862 20.8089 327.862C18.5269 327.637 16.3505 326.794 14.5162 325.423C12.682 324.053 11.2602 322.208 10.4053 320.089C9.55053 317.97 9.29544 315.658 9.66783 313.404C10.0402 311.151 11.0258 309.043 12.5175 307.308C14.0091 305.574 15.9497 304.28 18.1282 303.567C20.3068 302.854 22.6398 302.75 24.8737 303.265C27.1076 303.781 29.1569 304.896 30.7986 306.491C32.4404 308.085 33.6118 310.097 34.1855 312.308C34.4356 313.315 34.5635 314.349 34.5664 315.387Z" fill="#ECD6C4" stroke="#2F2325" stroke-width="0.8" stroke-linecap="round" stroke-linejoin="round"/>
<path d="M35.4893 269.032C35.4815 272.341 34.1572 275.512 31.8065 277.85C29.4558 280.188 26.2703 281.503 22.9478 281.507C22.5376 281.507 22.1273 281.507 21.7171 281.507C19.434 281.289 17.2546 280.452 15.4161 279.086C13.5775 277.721 12.1502 275.879 11.2893 273.762C10.4284 271.645 10.167 269.334 10.5334 267.079C10.8998 264.824 11.8801 262.713 13.3676 260.974C14.8551 259.236 16.7929 257.937 18.9701 257.218C21.1473 256.5 23.4806 256.39 25.7162 256.901C27.9517 257.411 30.004 258.522 31.6496 260.113C33.2952 261.704 34.4712 263.714 35.0497 265.924C35.3312 266.937 35.4789 267.981 35.4893 269.032Z" fill="#ECD6C4" stroke="#2F2325" stroke-width="0.8" stroke-linecap="round" stroke-linejoin="round"/>
<path d="M44.9395 249.947C44.9395 255.752 42.6241 261.319 38.5026 265.423C34.3812 269.527 28.7913 271.833 22.9626 271.833C22.2301 271.833 21.4975 271.833 20.8089 271.746C16.8112 271.351 12.9985 269.873 9.78537 267.471C6.57223 265.07 4.08153 261.837 2.58399 258.125C1.08646 254.413 0.639378 250.362 1.29135 246.415C1.94332 242.467 3.6694 238.773 6.28197 235.734C8.89454 232.694 12.2937 230.426 16.1099 229.176C19.9261 227.926 24.0133 227.742 27.9274 228.643C31.8415 229.544 35.4327 231.497 38.3106 234.288C41.1885 237.079 43.243 240.603 44.2509 244.476C44.7053 246.265 44.9366 248.102 44.9395 249.947V249.947Z" fill="#ECD6C4" stroke="#2F2325" stroke-width="0.8" stroke-linecap="round" stroke-linejoin="round"/>
<path d="M55.1512 211.369L43.1305 232.079L42.4815 225.405L34.0622 234.44L48.1039 207.649L55.1512 211.369Z" fill="#2F2325" stroke="#2F2325" stroke-width="0.8" stroke-linecap="round" stroke-linejoin="round"/>
<path d="M58.0818 210.362L53.2908 219.336L42.61 213.689L47.3863 204.701C48.142 203.295 49.4258 202.243 50.9575 201.775C52.4892 201.308 54.1444 201.463 55.5617 202.206V202.206C56.9807 202.956 58.043 204.236 58.5154 205.765C58.9879 207.295 58.8319 208.948 58.0818 210.362V210.362Z" fill="#ECD6C4" stroke="#2F2325" stroke-width="0.8" stroke-linecap="round" stroke-linejoin="round"/>
<path d="M46.4338 232.701C46.6684 231.183 46.4456 229.63 45.7936 228.239C45.1416 226.847 44.0898 225.679 42.7712 224.883C41.4526 224.087 39.9264 223.698 38.3859 223.766C36.8453 223.833 35.3596 224.355 34.1166 225.264C32.8737 226.173 31.9294 227.428 31.4033 228.872C30.8772 230.316 30.7928 231.882 31.1609 233.373C31.529 234.865 32.3331 236.214 33.4713 237.25C34.6095 238.286 36.0307 238.962 37.5552 239.194C38.5664 239.349 39.5985 239.305 40.5923 239.062C41.5862 238.82 42.5223 238.385 43.347 237.782C44.1718 237.179 44.8689 236.419 45.3986 235.548C45.9283 234.676 46.2801 233.708 46.4338 232.701V232.701Z" fill="#ECD6C4" stroke="#2F2325" stroke-width="0.8" stroke-linecap="round" stroke-linejoin="round"/>
<path d="M25.175 201.003L24.5304 238.005L16.5747 237.873L17.2047 200.871L25.175 201.003Z" fill="#2F2325" stroke="#2F2325" stroke-width="0.8" stroke-linecap="round" stroke-linejoin="round"/>
<path d="M27.329 198.77L27.1678 208.984L15.0659 208.692L15.2271 198.479C15.2404 197.687 15.4102 196.906 15.7267 196.18C16.0432 195.454 16.5002 194.797 17.0716 194.247C17.6431 193.697 18.3177 193.264 19.0571 192.974C19.7964 192.684 20.586 192.541 21.3806 192.555V192.555C22.1834 192.566 22.976 192.736 23.7118 193.056C24.4476 193.376 25.1119 193.839 25.6659 194.418C26.2198 194.997 26.6522 195.68 26.9378 196.427C27.2234 197.175 27.3564 197.971 27.329 198.77V198.77Z" fill="#ECD6C4" stroke="#2F2325" stroke-width="0.8" stroke-linecap="round" stroke-linejoin="round"/>
<path d="M20.7945 239.041C25.0993 239.041 28.589 235.566 28.589 231.279C28.589 226.992 25.0993 223.516 20.7945 223.516C16.4897 223.516 13 226.992 13 231.279C13 235.566 16.4897 239.041 20.7945 239.041Z" fill="#ECD6C4" stroke="#2F2325" stroke-width="0.8" stroke-linecap="round" stroke-linejoin="round"/>
<path d="M44.9396 249.947C44.9396 255.752 42.6242 261.319 38.5027 265.423C34.3813 269.527 28.7914 271.833 22.9628 271.833C22.2302 271.833 21.4976 271.833 20.809 271.746C19.967 268.508 19.8816 265.12 20.5593 261.844C21.237 258.568 22.6598 255.49 24.7183 252.847C26.7769 250.203 29.4164 248.065 32.4342 246.596C35.452 245.128 38.7677 244.367 42.1266 244.374C42.8445 244.374 43.5917 244.374 44.2803 244.476C44.7248 246.266 44.9463 248.103 44.9396 249.947V249.947Z" fill="#ECD6C4" stroke="#2F2325" stroke-width="0.8" stroke-linecap="round" stroke-linejoin="round"/>
<path d="M145.601 315.807C149.333 299.926 139.43 284.039 123.484 280.323C107.537 276.607 91.5845 286.469 87.8531 302.349C84.1216 318.23 94.024 334.117 109.971 337.833C125.918 341.549 141.87 331.687 145.601 315.807Z" fill="#ECD6C4"/>
<path d="M268.518 395.339L279.485 403.489L312.229 359.789L301.262 351.639L268.518 395.339Z" fill="#2F2325" stroke="#2F2325" stroke-width="1.79925" stroke-linecap="round" stroke-linejoin="round"/>
<path d="M304.105 363.097L312.288 352.175L240.777 299.034L232.593 309.956L304.105 363.097Z" fill="#2F2325" stroke="#2F2325" stroke-width="1.79925" stroke-linecap="round" stroke-linejoin="round"/>
<path d="M296.818 348.052C297.805 346.735 299.042 345.625 300.46 344.784C301.878 343.944 303.448 343.39 305.081 343.154C306.713 342.919 308.377 343.006 309.976 343.41C311.575 343.815 313.078 344.53 314.4 345.514L315.352 346.287C317.046 347.826 318.285 349.798 318.932 351.99C319.579 354.181 319.611 356.507 319.023 358.714C318.436 360.922 317.251 362.927 315.599 364.511C313.947 366.095 311.891 367.198 309.653 367.699C307.415 368.201 305.083 368.082 302.909 367.355C300.734 366.628 298.802 365.321 297.322 363.577C295.841 361.832 294.869 359.717 294.512 357.461C294.155 355.205 294.425 352.894 295.294 350.781C295.688 349.812 296.2 348.896 296.818 348.052Z" fill="#ECD6C4" stroke="#2F2325" stroke-width="0.8" stroke-linecap="round" stroke-linejoin="round"/>
<path d="M268.204 382.968C270.062 380.22 272.939 378.32 276.203 377.686C279.467 377.051 282.851 377.733 285.61 379.582C285.947 379.801 286.269 380.049 286.592 380.297C288.361 381.751 289.695 383.661 290.45 385.817C291.206 387.974 291.352 390.296 290.875 392.53C290.397 394.764 289.314 396.825 287.742 398.489C286.17 400.152 284.171 401.355 281.96 401.965C279.75 402.576 277.414 402.571 275.206 401.951C272.999 401.332 271.004 400.121 269.439 398.451C267.874 396.781 266.799 394.716 266.331 392.48C265.863 390.244 266.019 387.923 266.783 385.769C267.138 384.78 267.616 383.839 268.204 382.968V382.968Z" fill="#ECD6C4" stroke="#2F2325" stroke-width="0.8" stroke-linecap="round" stroke-linejoin="round"/>
<path d="M230.545 398.599L251.162 400.616L251.941 392.716L231.324 390.699L230.545 398.599Z" fill="#2F2325" stroke="#2F2325" stroke-width="1.79925" stroke-linecap="round" stroke-linejoin="round"/>
<path d="M229.291 388.439L239.459 389.431L238.272 401.425L228.104 400.433C226.507 400.278 225.037 399.497 224.018 398.263C222.998 397.029 222.513 395.443 222.668 393.852V393.852C222.827 392.261 223.614 390.797 224.856 389.782C226.097 388.767 227.692 388.284 229.291 388.439V388.439Z" fill="#ECD6C4" stroke="#2F2325" stroke-width="0.8" stroke-linecap="round" stroke-linejoin="round"/>
<path d="M249.656 393.546C251.266 391.156 253.334 389.106 255.741 387.513C258.148 385.92 260.846 384.815 263.682 384.263C266.519 383.71 269.436 383.719 272.269 384.291C275.101 384.862 277.793 385.984 280.189 387.593C280.79 388.001 281.361 388.425 281.918 388.877C285.015 391.426 287.352 394.772 288.673 398.552C289.994 402.331 290.25 406.398 289.412 410.312C288.574 414.226 286.674 417.836 283.92 420.75C281.165 423.663 277.661 425.769 273.789 426.838C269.917 427.907 265.824 427.899 261.956 426.813C258.089 425.728 254.594 423.607 251.852 420.681C249.11 417.756 247.226 414.138 246.405 410.22C245.584 406.303 245.857 402.237 247.194 398.463C247.801 396.726 248.628 395.074 249.656 393.546Z" fill="#ECD6C4" stroke="#2F2325" stroke-width="0.8" stroke-linecap="round" stroke-linejoin="round"/>
<path d="M225.98 416.278L253.231 395.982L257.612 401.804L230.36 422.085L225.98 416.278Z" fill="#2F2325" stroke="#2F2325" stroke-width="1.79925" stroke-linecap="round" stroke-linejoin="round"/>
<path d="M223.152 415.972L230.638 410.325L237.29 419.079L229.803 424.668C228.628 425.544 227.151 425.919 225.698 425.711C224.244 425.503 222.933 424.729 222.053 423.559V423.559C221.209 422.4 220.851 420.96 221.057 419.543C221.262 418.127 222.013 416.845 223.152 415.972V415.972Z" fill="#ECD6C4" stroke="#2F2325" stroke-width="0.8" stroke-linecap="round" stroke-linejoin="round"/>
<path d="M261.172 402.242C261.518 400.743 261.409 399.176 260.86 397.739C260.311 396.302 259.345 395.06 258.086 394.17C256.827 393.281 255.33 392.783 253.787 392.742C252.243 392.7 250.722 393.116 249.417 393.936C248.111 394.757 247.079 395.945 246.452 397.35C245.825 398.755 245.632 400.314 245.896 401.829C246.16 403.344 246.87 404.747 247.936 405.86C249.002 406.972 250.376 407.744 251.883 408.078C253.891 408.523 255.995 408.159 257.735 407.066C259.475 405.973 260.71 404.239 261.172 402.242Z" fill="#ECD6C4" stroke="#2F2325" stroke-width="0.8" stroke-linecap="round" stroke-linejoin="round"/>
<path d="M275.618 436.676L279.662 408.837L285.654 409.683L281.625 437.522L275.618 436.676Z" fill="#2F2325" stroke="#2F2325" stroke-width="1.79925" stroke-linecap="round" stroke-linejoin="round"/>
<path d="M273.786 438.149L274.885 430.489L283.984 431.788L282.885 439.433C282.8 440.029 282.599 440.603 282.292 441.121C281.985 441.64 281.578 442.093 281.095 442.455C280.612 442.816 280.062 443.08 279.477 443.23C278.891 443.38 278.282 443.414 277.684 443.329V443.329C276.478 443.156 275.39 442.513 274.659 441.542C273.929 440.571 273.615 439.351 273.786 438.149V438.149Z" fill="#ECD6C4" stroke="#2F2325" stroke-width="0.8" stroke-linecap="round" stroke-linejoin="round"/>
<path d="M287.998 407.859C287.308 406.789 286.315 405.946 285.145 405.437C283.974 404.928 282.679 404.777 281.422 405.001C280.165 405.225 279.002 405.815 278.082 406.697C277.161 407.578 276.524 408.712 276.25 409.954C275.976 411.196 276.077 412.491 276.542 413.676C277.007 414.861 277.814 415.882 278.861 416.61C279.908 417.338 281.148 417.741 282.425 417.768C283.702 417.794 284.958 417.443 286.035 416.76C287.479 415.838 288.497 414.382 288.865 412.714C289.233 411.045 288.921 409.299 287.998 407.859V407.859Z" fill="#ECD6C4" stroke="#2F2325" stroke-width="0.8" stroke-linecap="round" stroke-linejoin="round"/>
<path d="M248.645 432.97L266.812 404.314L272.981 408.166L254.828 436.836L248.645 432.97Z" fill="#2F2325" stroke="#2F2325" stroke-width="1.79925" stroke-linecap="round" stroke-linejoin="round"/>
<path d="M245.905 433.67L250.872 425.791L260.263 431.628L255.282 439.521C254.498 440.756 253.255 441.632 251.825 441.957C250.395 442.282 248.893 442.031 247.649 441.257V441.257C246.41 440.479 245.53 439.244 245.204 437.822C244.877 436.4 245.129 434.907 245.905 433.67V433.67Z" fill="#ECD6C4" stroke="#2F2325" stroke-width="0.8" stroke-linecap="round" stroke-linejoin="round"/>
<path d="M276.497 407.319C276.279 405.8 275.614 404.379 274.585 403.237C273.555 402.095 272.208 401.283 270.715 400.904C269.222 400.525 267.649 400.596 266.196 401.109C264.744 401.622 263.477 402.552 262.556 403.783C261.635 405.014 261.102 406.489 261.025 408.022C260.947 409.555 261.329 411.076 262.12 412.393C262.912 413.709 264.079 414.762 265.472 415.418C266.866 416.073 268.424 416.301 269.948 416.074C271.98 415.774 273.811 414.685 275.038 413.044C276.266 411.403 276.79 409.345 276.497 407.319V407.319Z" fill="#ECD6C4" stroke="#2F2325" stroke-width="0.8" stroke-linecap="round" stroke-linejoin="round"/>
<path d="M122.237 322.284C129.563 319.241 133.025 310.86 129.969 303.564C126.914 296.268 118.498 292.82 111.171 295.863C103.845 298.906 100.383 307.287 103.439 314.583C106.494 321.879 114.911 325.327 122.237 322.284Z" fill="#2F2325" stroke="#2F2325" stroke-width="1.79925" stroke-linecap="round" stroke-linejoin="round"/>
<path d="M252.185 334.422C265.956 325.594 269.934 307.32 261.069 293.606C252.205 279.892 233.855 275.931 220.084 284.759C206.313 293.587 202.335 311.861 211.2 325.575C220.064 339.289 238.414 343.25 252.185 334.422Z" fill="#ECD6C4"/>
<path d="M249.211 315.569C252.52 308.384 249.354 299.887 242.139 296.591C234.924 293.295 226.392 296.449 223.082 303.634C219.773 310.819 222.939 319.316 230.154 322.612C237.369 325.907 245.901 322.754 249.211 315.569Z" fill="#2F2325" stroke="#2F2325" stroke-width="1.79925" stroke-linecap="round" stroke-linejoin="round"/>
<path d="M244.184 250.555C254.413 237.783 260.815 222.396 262.653 206.162C264.491 189.928 261.69 173.507 254.573 158.788C247.456 144.068 236.312 131.649 222.422 122.957C208.532 114.265 192.46 109.653 176.056 109.653C159.651 109.653 143.58 114.265 129.69 122.957C115.8 131.649 104.656 144.068 97.5386 158.788C90.4216 173.507 87.621 189.928 89.4588 206.162C91.2966 222.396 97.6983 237.783 107.927 250.555H244.184Z" fill="#ECD6C4"/>
<path d="M176.393 151.382C183.067 151.383 189.636 149.721 195.499 146.545C201.362 143.369 206.333 138.782 209.959 133.202L218.222 120.464C205.128 113.263 190.393 109.54 175.435 109.655C160.477 109.77 145.801 113.719 132.82 121.121L145.259 136.499C149.001 141.14 153.741 144.886 159.129 147.462C164.517 150.038 170.416 151.377 176.393 151.382Z" fill="#CC8373"/>
<path d="M226.065 270.122C205.832 267.117 175.577 265.979 175.577 265.979C160.763 266.401 145.983 267.619 131.301 269.626L150.875 382.208H204.074L226.065 270.122Z" fill="#CC8373"/>
<path d="M170.101 278.583C170.101 278.583 172.863 275.885 171.14 270.144C164.557 259.854 151.894 259.175 148.664 260.887C142.886 263.946 144.922 285.701 151.357 287.442C158.021 289.35 170.362 279.852 170.101 278.583Z" fill="#A45A49"/>
<path opacity="0.1" d="M167.955 273.224C165.147 272.196 153.402 267.043 152.92 269.511C152.309 272.629 165.67 274.475 165.67 274.475C165.67 274.475 152.772 276.405 153.917 279.619C154.688 281.78 167.327 275.915 167.327 275.915L167.955 273.224Z" fill="black"/>
<path d="M168.484 270.821C168.288 271.04 168.107 271.273 167.943 271.519C167.217 272.58 166.747 273.814 166.573 275.116C166.399 276.419 166.527 277.752 166.944 279.005C167.822 281.307 170.383 282.588 172.519 283.047C173.992 283.368 175.507 283.346 176.959 282.984C178.41 282.622 179.762 281.928 180.918 280.951C181.91 279.994 182.604 278.746 182.913 277.362C183.223 275.979 183.134 274.522 182.658 273.175C180.488 267.415 172.192 266.69 168.484 270.821Z" fill="#A45A49"/>
<path opacity="0.2" d="M168.484 270.821C168.288 271.04 168.107 271.273 167.943 271.519C167.217 272.58 166.747 273.814 166.573 275.116C166.399 276.419 166.527 277.752 166.944 279.005C167.822 281.307 170.383 282.588 172.519 283.047C173.992 283.368 175.507 283.346 176.959 282.984C178.41 282.622 179.762 281.928 180.918 280.951C181.91 279.994 182.604 278.746 182.913 277.362C183.223 275.979 183.134 274.522 182.658 273.175C180.488 267.415 172.192 266.69 168.484 270.821Z" fill="black"/>
<path d="M179.603 272.792C180.459 268.955 194.266 256.483 203.75 262.305C208.69 265.341 207.484 286.059 202.327 288.738C194.855 292.635 182.662 285.693 180.131 279.677C179.578 278.627 179.244 277.468 179.153 276.28C179.062 275.092 179.216 273.902 179.603 272.792V272.792Z" fill="#A45A49"/>
<path opacity="0.1" d="M179.2 274.78C179.161 275.335 179.163 275.893 179.206 276.45C180.368 277.473 193.756 281.759 193.856 279.444C193.957 277.129 181.62 275.201 181.62 275.201C181.62 275.201 195.403 271.628 194.375 269.069C193.669 267.4 180.625 273.288 179.2 274.78Z" fill="black"/>
<defs>
<linearGradient id="paint0_linear_7_3" x1="271" y1="74.3281" x2="271" y2="651" gradientUnits="userSpaceOnUse">
<stop stop-color="#035E65"/>
<stop offset="1" stop-color="#FFF2E7" stop-opacity="0"/>
</linearGradient>
<clipPath id="clip0_7_3">
<rect x="15" y="139" width="307.587" height="291.577" rx="145.789" fill="white"/>
</clipPath>
</defs>
</svg>
